<svg width="223" height="23" viewBox="0 0 223 23" fill="none" xmlns="http://www.w3.org/2000/svg">
<path d="M12.5 0L15.3064 8.63729H24.3882L17.0409 13.9754L19.8473 22.6127L12.5 17.2746L5.15268 22.6127L7.95911 13.9754L0.611794 8.63729H9.69357L12.5 0Z" fill="#FFC700"/>
<path d="M61.5 0L64.3064 8.63729H73.3882L66.0409 13.9754L68.8473 22.6127L61.5 17.2746L54.1527 22.6127L56.9591 13.9754L49.6118 8.63729H58.6936L61.5 0Z" fill="#FFC700"/>
<path d="M110.5 0L113.306 8.63729H122.388L115.041 13.9754L117.847 22.6127L110.5 17.2746L103.153 22.6127L105.959 13.9754L98.6118 8.63729H107.694L110.5 0Z" fill="#FFC700"/>
<path d="M160.5 0L163.306 8.63729H172.388L165.041 13.9754L167.847 22.6127L160.5 17.2746L153.153 22.6127L155.959 13.9754L148.612 8.63729H157.694L160.5 0Z" fill="#FFC700"/>
<path d="M210.5 0L213.306 8.63729H222.388L215.041 13.9754L217.847 22.6127L210.5 17.2746L203.153 22.6127L205.959 13.9754L198.612 8.63729H207.694L210.5 0Z" fill="#C9C9C9"/>
</svg>
