<svg width="20" height="20" viewBox="0 0 20 20" fill="none" xmlns="http://www.w3.org/2000/svg">
<g clip-path="url(#clip0_383_1034)">
<path d="M15.8337 3.33337H4.16699C3.50395 3.33337 2.86807 3.59677 2.39923 4.06561C1.93038 4.53445 1.66699 5.17033 1.66699 5.83337V14.1667C1.66699 14.8297 1.93038 15.4656 2.39923 15.9345C2.86807 16.4033 3.50395 16.6667 4.16699 16.6667H15.8337C16.4967 16.6667 17.1326 16.4033 17.6014 15.9345C18.0703 15.4656 18.3337 14.8297 18.3337 14.1667V5.83337C18.3337 5.17033 18.0703 4.53445 17.6014 4.06561C17.1326 3.59677 16.4967 3.33337 15.8337 3.33337ZM15.2753 5.00004L10.0003 8.95837L4.72533 5.00004H15.2753ZM15.8337 15H4.16699C3.94598 15 3.73402 14.9122 3.57774 14.756C3.42146 14.5997 3.33366 14.3877 3.33366 14.1667V6.04171L9.50033 10.6667C9.64457 10.7749 9.82002 10.8334 10.0003 10.8334C10.1806 10.8334 10.3561 10.7749 10.5003 10.6667L16.667 6.04171V14.1667C16.667 14.3877 16.5792 14.5997 16.4229 14.756C16.2666 14.9122 16.0547 15 15.8337 15Z" fill="#FF9900"/>
</g>
<defs>
<clipPath id="clip0_383_1034">
<rect width="20" height="20" fill="white"/>
</clipPath>
</defs>
</svg>
