<svg width="22" height="22" viewBox="0 0 22 22" fill="none" xmlns="http://www.w3.org/2000/svg">
<g clip-path="url(#clip0_353_338)">
<path d="M4.31278 0.00140381C1.94164 0.00140381 0.00146484 1.94158 0.00146484 4.31271V17.6928C0.00146484 20.064 1.94164 22.0041 4.31278 22.0041H17.6929C20.064 22.0041 22.0042 20.064 22.0042 17.6928V4.31271C22.0042 1.94158 20.064 0.00140381 17.6929 0.00140381H4.31278ZM6.78092 4.96583H11.1211C12.0225 4.96583 12.7072 4.9988 13.1719 5.06964C13.6367 5.13694 14.0732 5.2812 14.4788 5.50071C14.9178 5.73719 15.2475 6.05564 15.4647 6.45014C15.6819 6.84698 15.792 7.3031 15.792 7.82171C15.792 8.42107 15.6424 8.95385 15.341 9.42152C15.0424 9.8892 14.6282 10.2331 14.1014 10.4555V10.5195C14.8594 10.6804 15.4673 11.0042 15.9233 11.4971C16.38 11.9905 16.608 12.6547 16.608 13.4888C16.608 14.0993 16.4928 14.6378 16.2615 15.0996C16.0304 15.5614 15.7209 15.942 15.3293 16.2463C14.8675 16.6092 14.3606 16.8653 13.8051 17.0205C13.2532 17.175 12.552 17.2521 11.6986 17.2521H6.78094V4.96585L6.78092 4.96583ZM9.8506 7.21807V9.8182H10.239C10.7658 9.8182 11.138 9.81279 11.3493 9.8017C11.5607 9.79061 11.7806 9.73401 12.0059 9.62982C12.2506 9.51451 12.4229 9.35442 12.5153 9.15132C12.6084 8.94586 12.6563 8.70861 12.6563 8.44114C12.6563 8.24155 12.6055 8.03832 12.5036 7.82996C12.4024 7.62157 12.2451 7.46927 12.0279 7.37621C11.8254 7.28607 11.5859 7.23855 11.3067 7.22978C11.0281 7.22098 10.6141 7.21809 10.0651 7.21809H9.85057L9.8506 7.21807ZM9.8506 11.9226V14.9985H10.017C10.82 14.9985 11.3747 14.9925 11.6814 14.9813C11.9881 14.9702 12.3041 14.8974 12.6219 14.7593C12.904 14.6381 13.1066 14.4606 13.2365 14.2264C13.3659 13.9929 13.4304 13.728 13.4304 13.4324C13.4304 13.0519 13.3552 12.7563 13.2001 12.5421C13.0456 12.3255 12.8144 12.1647 12.5071 12.0546C12.321 11.9815 12.0617 11.9418 11.735 11.9336C11.4084 11.9254 10.9695 11.9226 10.4199 11.9226H9.85062H9.8506Z" fill="#1074EB"/>
</g>
<defs>
<clipPath id="clip0_353_338">
<rect width="22" height="22" fill="white"/>
</clipPath>
</defs>
</svg>
