<svg width="20" height="20" viewBox="0 0 20 20" fill="none" xmlns="http://www.w3.org/2000/svg">
<g clip-path="url(#clip0_383_1018)">
<path d="M14.5003 18.3334C11.0981 18.329 7.83642 16.9755 5.43066 14.5697C3.0249 12.164 1.6714 8.90231 1.66699 5.50005C1.66699 4.48339 2.07086 3.50837 2.78975 2.78948C3.50864 2.07059 4.48366 1.66672 5.50033 1.66672C5.71561 1.66508 5.93053 1.68462 6.14199 1.72505C6.34642 1.7553 6.54738 1.80555 6.74199 1.87505C6.87887 1.92308 7.00083 2.006 7.09583 2.11561C7.19083 2.22523 7.25558 2.35775 7.28366 2.50005L8.42533 7.50005C8.4561 7.63577 8.45239 7.77704 8.41455 7.91096C8.3767 8.04488 8.30592 8.16719 8.20866 8.26672C8.10033 8.38339 8.09199 8.39172 7.06699 8.92506C7.88782 10.7258 9.32799 12.1719 11.1253 13.0001C11.667 11.9667 11.6753 11.9584 11.792 11.8501C11.8915 11.7528 12.0138 11.682 12.1478 11.6442C12.2817 11.6063 12.4229 11.6026 12.5587 11.6334L17.5587 12.7751C17.6964 12.807 17.8238 12.8735 17.9287 12.9683C18.0337 13.063 18.1128 13.1829 18.1587 13.3167C18.229 13.5145 18.282 13.7181 18.317 13.9251C18.3505 14.1345 18.3673 14.3463 18.367 14.5584C18.3516 15.5707 17.9364 16.5358 17.212 17.2431C16.4875 17.9504 15.5127 18.3423 14.5003 18.3334ZM5.50033 3.33339C4.92637 3.33558 4.37654 3.56456 3.97069 3.97041C3.56483 4.37627 3.33585 4.92609 3.33366 5.50005C3.33587 8.46096 4.51306 11.3 6.60674 13.3936C8.70042 15.4873 11.5394 16.6645 14.5003 16.6667C15.0743 16.6645 15.6241 16.4355 16.03 16.0297C16.4358 15.6238 16.6648 15.074 16.667 14.5001V14.2251L12.8003 13.3334L12.5587 13.7917C12.1837 14.5167 11.9087 15.0417 11.2087 14.7584C9.82773 14.2641 8.57424 13.4684 7.53927 12.4291C6.5043 11.3898 5.71384 10.133 5.22533 8.75005C4.92533 8.10006 5.49199 7.80006 6.20866 7.42506L6.66699 7.20006L5.77533 3.33339H5.50033Z" fill="#FF9900"/>
</g>
<defs>
<clipPath id="clip0_383_1018">
<rect width="20" height="20" fill="white"/>
</clipPath>
</defs>
</svg>
